<svg width="32" height="32" xmlns="http://www.w3.org/2000/svg">

 <g>
  <title>Layer 1</title>
  <g transform="rotate(-90 15.6765 16.0005)" stroke="null">
   <path stroke="null" fill="#2D50A7" d="m16.35752,2c-0.75223,0 -1.36206,0.56986 -1.36206,1.27278l0,5.09108c0,0.70292 0.60984,1.27278 1.36206,1.27278c0.75223,0 1.36206,-0.56986 1.36206,-1.27278l0,-5.09108c0,-0.70292 -0.60984,-1.27278 -1.36206,-1.27278z"/>
   <path stroke="null" fill="#73A1FB" d="m16.35763,22.36433c-0.75223,0 -1.36206,0.56986 -1.36206,1.27278l0,5.09108c0,0.70292 0.60984,1.27278 1.36206,1.27278c0.75223,0 1.36206,-0.56986 1.36206,-1.27278l0,-5.09108c0,-0.70292 -0.60984,-1.27278 -1.36206,-1.27278z"/>
   <path stroke="null" fill="#355EC9" d="m11.54198,9.70069l-3.8525,-3.60009c-0.53176,-0.49707 -1.39419,-0.49707 -1.92619,0c-0.53194,0.49707 -0.53194,1.30292 0,1.79993l3.8525,3.60009c0.26594,0.24851 0.61458,0.37282 0.96304,0.37282c0.34852,0 0.69721,-0.12431 0.96304,-0.37282c0.53205,-0.49707 0.53205,-1.30286 0.00012,-1.79993z"/>
   <g stroke="null">
    <path stroke="null" fill="#C4D9FD" d="m28.61597,14.72768l-2.72407,0c-0.75223,0 -1.36206,0.56986 -1.36206,1.27278c0,0.70292 0.60984,1.27278 1.36206,1.27278l2.72407,0c0.75223,0 1.36206,-0.56986 1.36206,-1.27278c0,-0.70292 -0.60984,-1.27278 -1.36206,-1.27278z"/>
    <path stroke="null" fill="#C4D9FD" d="m23.0993,20.50046c-0.53182,-0.49707 -1.39425,-0.49696 -1.92619,0c-0.53194,0.49707 -0.53182,1.30286 0,1.79993l3.85261,3.59992c0.26594,0.24851 0.61458,0.37276 0.96315,0.37276c0.34858,0 0.69721,-0.12431 0.96304,-0.37276c0.53194,-0.49707 0.53194,-1.30292 0,-1.79993l-3.85261,-3.59992z"/>
   </g>
   <path stroke="null" fill="#3D6DEB" d="m9.54732,16.00046c0,-0.70292 -0.60984,-1.27278 -1.36206,-1.27278l-5.44819,0c-0.75223,0 -1.36206,0.56986 -1.36206,1.27278c0,0.70292 0.60984,1.27278 1.36206,1.27278l5.44819,0c0.75223,0 1.36206,-0.56986 1.36206,-1.27278z"/>
   <path stroke="null" fill="#5286FA" d="m11.54198,20.50046c-0.53182,-0.49707 -1.39431,-0.49707 -1.92619,0l-3.85244,3.59992c-0.53194,0.49696 -0.53194,1.30292 0,1.79993c0.26594,0.24851 0.61458,0.37276 0.96315,0.37276c0.34858,0 0.69721,-0.1242 0.96304,-0.37276l3.85244,-3.59992c0.53194,-0.49696 0.53194,-1.30286 0,-1.79993z"/>
   <g stroke="null"/>
   <g stroke="null"/>
   <g stroke="null"/>
   <g stroke="null"/>
   <g stroke="null"/>
   <g stroke="null"/>
   <g stroke="null"/>
   <g stroke="null"/>
   <g stroke="null"/>
   <g stroke="null"/>
   <g stroke="null"/>
   <g stroke="null"/>
   <g stroke="null"/>
   <g stroke="null"/>
   <g stroke="null"/>
  </g>
 </g>
</svg>