<?xml version="1.0" encoding="utf-8"?><svg version="1.1" id="Layer_1" xmlns="http://www.w3.org/2000/svg" xmlns:xlink="http://www.w3.org/1999/xlink" x="0px" y="0px" viewBox="0 0 115.28 122.88" style="enable-background:new 0 0 115.28 122.88" xml:space="preserve"><style type="text/css">.st0{fill-rule:evenodd;clip-rule:evenodd;}</style><g><path class="st0" d="M25.38,57h64.88V37.34H69.59c-2.17,0-5.19-1.17-6.62-2.6c-1.43-1.43-2.3-4.01-2.3-6.17V7.64l0,0H8.15 c-0.18,0-0.32,0.09-0.41,0.18C7.59,7.92,7.55,8.05,7.55,8.24v106.45c0,0.14,0.09,0.32,0.18,0.41c0.09,0.14,0.28,0.18,0.41,0.18 c22.78,0,58.09,0,81.51,0c0.18,0,0.17-0.09,0.27-0.18c0.14-0.09,0.33-0.28,0.33-0.41v-11.16H25.38c-4.14,0-7.56-3.4-7.56-7.56 V64.55C17.82,60.4,21.22,57,25.38,57L25.38,57z M45.37,88.16h-8.22l-1.18,3.87h-7.4l8.83-23.47h7.94l8.8,23.47h-7.59L45.37,88.16 L45.37,88.16z M43.83,83.08l-2.56-8.44l-2.57,8.44H43.83L43.83,83.08z M54.81,68.55h12.06c2.63,0,4.59,0.62,5.91,1.87 c1.31,1.25,1.96,3.03,1.96,5.34c0,2.37-0.72,4.23-2.14,5.56c-1.43,1.34-3.61,2.01-6.53,2.01h-3.98v8.69h-7.28V68.55L54.81,68.55z M62.09,78.59h1.79c1.41,0,2.4-0.25,2.97-0.73c0.57-0.49,0.85-1.11,0.85-1.87c0-0.74-0.25-1.36-0.74-1.87 c-0.49-0.51-1.42-0.77-2.79-0.77h-2.08V78.59L62.09,78.59z M76.97,68.55h7.24v8.87l7.6-8.87h9.64l-8.57,8.82l8.96,14.65h-8.92 l-4.95-9.64l-3.76,3.92v5.71h-7.24V68.55L76.97,68.55z M97.79,57h9.93c4.16,0,7.56,3.41,7.56,7.56v31.42 c0,4.15-3.41,7.56-7.56,7.56h-9.93v13.55c0,1.61-0.65,3.04-1.7,4.1c-1.06,1.06-2.49,1.7-4.1,1.7c-29.44,0-56.59,0-86.18,0 c-1.61,0-3.04-0.64-4.1-1.7c-1.06-1.06-1.7-2.49-1.7-4.1V5.85c0-1.61,0.65-3.04,1.7-4.1c1.06-1.06,2.53-1.7,4.1-1.7h58.72 C64.66,0,64.8,0,64.94,0c0.64,0,1.29,0.28,1.75,0.69h0.09c0.09,0.05,0.14,0.09,0.23,0.18l29.99,30.36c0.51,0.51,0.88,1.2,0.88,1.98 c0,0.23-0.05,0.41-0.09,0.65V57L97.79,57z M67.52,27.97V8.94l21.43,21.7H70.19c-0.74,0-1.38-0.32-1.89-0.78 C67.84,29.4,67.52,28.71,67.52,27.97L67.52,27.97z"/></g></svg>