<svg width="16" height="16" xmlns="http://www.w3.org/2000/svg">

 <g>
  <title>Layer 1</title>
  <desc>Created with Sketch.</desc>
  <g stroke="null" id="svg_17">
   <g stroke="null" id="svg_10">
    <g stroke="null" id="svg_11">
     <g stroke="null" id="svg_12">
      <rect stroke="null" height="13.5909" width="13.68181" fill="none" y="1.03413" x="0.69321" id="svg_15"/>
      <g stroke="null" id="svg_13">
       <path stroke="null" d="m7.74461,11.11404l-3.47308,-3.39772c-0.21049,-0.22651 -0.21049,-0.56629 0,-0.7928c0.21049,-0.22651 0.63147,-0.22651 0.84196,0l2.42063,2.49166l0,-6.56893c0,-0.33977 0.21049,-0.56629 0.52622,-0.56629c0.31573,0 0.52622,0.22651 0.52622,0.56629l0,6.56893l2.42063,-2.49166c0.21049,-0.22651 0.63147,-0.22651 0.84196,0c0.21049,0.22651 0.21049,0.56629 0,0.7928l-3.47308,3.39772c-0.10524,0.11326 -0.21049,0.11326 -0.42098,0.11326c0,0 -0.10524,0 -0.21049,-0.11326zm-4.20979,1.24583l9.15629,0c0.31573,0 0.52622,0.22651 0.52622,0.56629s-0.21049,0.56629 -0.52622,0.56629l-9.15629,0c-0.31573,0 -0.52622,-0.22651 -0.52622,-0.56629s0.21049,-0.56629 0.52622,-0.56629l0,0z" id="svg_14"/>
      </g>
     </g>
    </g>
   </g>
  </g>
 </g>
</svg>