<svg width="16" height="16" xmlns="http://www.w3.org/2000/svg">
 <title>common-actions/add_16</title>

 <g>
  <title>Layer 1</title>
  <path transform="rotate(-45 8 8)" id="svg_1" d="m7.5,7.5l0,-2.99956c0,-0.27639 0.23193,-0.50044 0.5,-0.50044c0.27614,0 0.5,0.2308 0.5,0.50044l0,2.99956l2.99956,0c0.27639,0 0.50044,0.23193 0.50044,0.5c0,0.27614 -0.2308,0.5 -0.50044,0.5l-2.99956,0l0,2.99956c0,0.27639 -0.23193,0.50044 -0.5,0.50044c-0.27614,0 -0.5,-0.2308 -0.5,-0.50044l0,-2.99956l-2.99956,0c-0.27639,0 -0.50044,-0.23193 -0.50044,-0.5c0,-0.27614 0.2308,-0.5 0.50044,-0.5l2.99956,0zm0.5,-7.5c4.411,0 8,3.589 8,8c0,4.411 -3.589,8 -8,8c-4.411,0 -8,-3.589 -8,-8c0,-4.411 3.589,-8 8,-8zm0,15c3.86,0 7,-3.14 7,-7c0,-3.86 -3.14,-7 -7,-7c-3.86,0 -7,3.14 -7,7c0,3.86 3.14,7 7,7z"/>
 </g>
</svg>