<svg width="16" height="16" xmlns="http://www.w3.org/2000/svg" preserveAspectRatio="xMidYMid meet" version="1.0">

 <g>
  <title>Layer 1</title>
  <g stroke="null" id="svg_1" fill="#000000" transform="translate(0 256) scale(0.1 -0.1)">
   <path stroke="null" id="svg_2" d="m48.38983,2555.5893c-11.21106,-2.84258 -18.94283,-7.22169 -27.29314,-15.28847c-12.37083,-12.06176 -18.16965,-26.81244 -17.31916,-44.25205c1.00513,-21.74189 12.6801,-39.41198 32.55074,-49.39942c8.04104,-3.99498 15.61817,-5.76199 25.59215,-5.76199c10.5152,-0.07683 16.77794,1.38288 26.6746,6.14612c6.34005,2.99623 8.35031,4.53276 14.76768,10.83253c6.34005,6.3766 7.8864,8.37409 10.90179,14.67386c4.7937,9.83379 6.26273,16.05673 6.18541,26.50513c0,9.91062 -1.77831,17.43961 -5.79883,25.42956c-7.57713,14.90434 -19.79332,25.27591 -35.72077,30.26963c-7.80909,2.45845 -22.57676,2.84258 -30.54048,0.84509zm25.43751,-8.91187c17.24184,-4.0718 31.46829,-18.20788 36.03004,-35.72431c1.62367,-6.29977 1.62367,-17.9774 0,-24.20034c-4.40711,-16.825 -18.32429,-30.88424 -35.17954,-35.41701c-7.8864,-2.15114 -19.63869,-1.84384 -27.52509,0.69144c-16.46866,5.37785 -29.3034,18.97614 -33.16928,35.26335c-2.39685,10.29475 -0.85049,24.43082 3.71125,33.41952c6.41737,12.59954 18.47892,22.20285 32.24147,25.89052c5.56687,1.4597 17.70575,1.53653 23.89116,0.07683z"/>
   <path stroke="null" id="svg_3" d="m50.63205,2537.15095c-6.95859,-2.22797 -12.06156,-5.45468 -17.24184,-10.90936c-5.18028,-5.45468 -8.35031,-10.98619 -10.12862,-17.67009c-2.24221,-8.14361 -1.00513,-12.98367 3.17002,-12.98367c3.01539,0 4.40711,1.84384 5.10297,6.99121c1.93294,14.28972 13.29864,25.35274 27.44777,26.81244c4.02052,0.38413 5.41224,0.84509 6.572,2.30479c1.39172,1.76701 1.3144,3.91815 -0.30927,5.99247c-1.15977,1.38288 -9.51007,1.07557 -14.61304,-0.53779z"/>
   <path stroke="null" id="svg_4" d="m32.15312,2479.45426c-0.85049,-0.84509 -1.54635,-2.22797 -1.54635,-3.07306c0,-0.84509 0.69586,-2.22797 1.54635,-3.07306c0.85049,-0.84509 2.24221,-1.53653 3.09271,-1.53653c0.85049,0 2.24221,0.69144 3.09271,1.53653c0.85049,0.84509 1.54635,2.22797 1.54635,3.07306c0,0.84509 -0.69586,2.22797 -1.54635,3.07306c-0.85049,0.84509 -2.24221,1.53653 -3.09271,1.53653c-0.85049,0 -2.24221,-0.69144 -3.09271,-1.53653z"/>
   <path stroke="null" id="svg_5" d="m106.91931,2454.25518c-2.01026,-2.15114 -1.62367,-4.99372 1.00513,-7.45217c2.16489,-1.99749 2.24221,-2.38162 1.77831,-6.53025c-0.23195,-2.53527 -0.07732,-5.53151 0.46391,-7.06804c1.00513,-3.14989 23.96848,-26.19783 27.37046,-27.42705c3.40198,-1.30605 8.81421,-0.99874 12.13887,0.69144c3.86588,1.92066 6.26273,5.45468 6.80396,9.60331c0.77318,7.22169 0.15464,8.22043 -12.44815,20.97363c-7.19054,7.22169 -12.98937,12.44589 -14.84499,13.29098c-3.24734,1.4597 -7.4225,1.76701 -10.0513,0.76826c-1.15977,-0.46096 -2.24221,0 -4.48443,1.92066c-3.17002,2.91941 -5.87614,3.30354 -7.73177,1.22922zm29.45803,-22.66381c11.44302,-11.44715 12.37083,-13.0605 9.66471,-16.05673c-2.78344,-3.07306 -4.63906,-1.99749 -16.23671,9.52648c-11.52033,11.44715 -12.52546,13.0605 -9.74203,16.13356c2.78344,3.07306 4.71638,1.99749 16.31403,-9.60331z"/>
  </g>
 </g>
</svg>