<svg width="16" height="16" xmlns="http://www.w3.org/2000/svg">

 <g>
  <title>Layer 1</title>
  <g stroke="null" id="svg_6">
   <g stroke="null" id="svg_4" fill="#000000" transform="translate(0 884) scale(0.1 -0.1)">
    <path stroke="null" id="svg_5" d="m8.94998,8829.74951c-2.35904,-0.51509 -4.68314,-1.80281 -6.11604,-3.39959c-1.06594,-1.1847 -2.21925,-3.48543 -2.62116,-5.23674c-0.43686,-1.923 -0.26212,-2.60978 1.10089,-4.13788c6.98976,-7.82935 20.18293,-22.45787 28.16873,-31.18004c2.06198,-2.26639 5.78403,-6.31842 8.23044,-9.01405c2.46389,-2.69563 6.76259,-7.38294 9.55849,-10.43913c3.77447,-4.10354 5.13747,-5.71749 5.27727,-6.18107c0.10485,-0.42924 0.17474,-9.70084 0.17474,-27.59159c0,-16.37982 0.0699,-27.52291 0.17474,-28.41573c0.76887,-6.61031 4.40355,-11.50365 10.9215,-14.71437c1.81734,-0.89282 4.00164,-1.81998 8.7372,-3.65713c2.1144,-0.82414 6.29078,-2.47243 9.2789,-3.65713c8.24791,-3.26223 8.87699,-3.46826 10.99139,-3.46826c1.39795,0.01717 1.93966,0.08585 2.74348,0.41207c1.99208,0.77263 3.59973,2.7128 4.28123,5.18523c0.27959,1.03018 0.31454,3.60562 0.40191,38.28826l0.08737,37.18941l0.43686,0.61811c0.24464,0.32622 3.19781,3.58845 6.5529,7.26275c3.37256,3.6743 8.89447,9.71801 12.30197,13.46099c3.40751,3.72581 6.74512,7.40011 7.44409,8.15557c4.94525,5.40843 17.87631,19.53903 21.40613,23.41937c2.35904,2.57544 4.47345,4.99636 4.70061,5.37409l0.41939,0.68679l-0.47181,1.99168c-0.57666,2.50677 -1.52027,4.15505 -3.42498,6.04371c-1.01351,1.01301 -1.64259,1.45942 -2.7959,2.00885c-2.83085,1.37357 3.63467,1.25338 -70.54414,1.23621c-54.3279,-0.01717 -66.55997,-0.05151 -67.41622,-0.24037zm128.52418,-11.34912c0,-0.22321 -1.39795,-1.78564 -7.07713,-7.96671c-3.18034,-3.45109 -10.1002,-10.97139 -15.37747,-16.74038c-5.27727,-5.75182 -10.30989,-11.2461 -11.18361,-12.19043c-0.87372,-0.94433 -3.12792,-3.38242 -5.01515,-5.40843c-1.86976,-2.04319 -4.99768,-5.2024 -6.93734,-7.03955l-3.51235,-3.33091l0,-36.62281c0,-20.13997 -0.03495,-36.62281 -0.0699,-36.62281c-0.36696,0 -19.57132,7.70916 -20.11303,8.06972c-0.92614,0.61811 -1.90471,1.68262 -2.35904,2.55827c-0.90867,1.76847 -0.87372,0.32622 -0.87372,32.63946l0,29.97817l-2.06198,1.97451c-1.11836,1.06452 -2.83085,2.69563 -3.77447,3.58845c-2.44642,2.3179 -9.12163,9.42612 -21.79057,23.26484c-7.58389,8.29293 -17.56177,19.1613 -19.79849,21.58222c-1.01351,1.11603 -1.85229,2.09469 -1.85229,2.19771c0,0.12019 20.37515,0.1717 60.89827,0.1717c33.49842,0 60.89827,-0.05151 60.89827,-0.10302z"/>
   </g>
  </g>
 </g>
</svg>