<?xml version="1.0" encoding="utf-8"?>
<!-- Generator: Adobe Illustrator 18.1.1, SVG Export Plug-In . SVG Version: 6.00 Build 0)  -->
<svg version="1.1" id="图层_1" xmlns="http://www.w3.org/2000/svg" xmlns:xlink="http://www.w3.org/1999/xlink" x="0px" y="0px"
	 viewBox="-297 389 16 16" enable-background="new -297 389 16 16" xml:space="preserve">
<path id="arrow-tail-down_12" d="M-288.5,394l0.5-1.8v8.8l4-3.6c0.2-0.2,0.6-0.2,0.9,0c0.2,0.2,0.2,0.6,0,0.8l-5,4.5
	c-0.2,0.2-0.6,0.2-0.9,0l-5-4.5c-0.1-0.1-0.2-0.3-0.2-0.4c0-0.1,0.1-0.3,0.2-0.4c0.2-0.2,0.6-0.2,0.9,0l4,3.6v-8.8
	c0-0.3,0.3-0.6,0.6-0.6s0.6,0.3,0.6,0.6"/>
</svg>
