<?xml version="1.0" encoding="utf-8"?>
<!-- Generator: Adobe Illustrator 18.1.1, SVG Export Plug-In . SVG Version: 6.00 Build 0)  -->
<svg version="1.1" id="图层_1" xmlns="http://www.w3.org/2000/svg" xmlns:xlink="http://www.w3.org/1999/xlink" x="0px" y="0px"
	 viewBox="-297 389 16 16" enable-background="new -297 389 16 16" xml:space="preserve">
<g>
	<title>Layer 1</title>
	<path id="arrow-tail-down_12" d="M-288.8,400.7l-0.5,1.8v-8.8l-4,3.6c-0.2,0.2-0.6,0.2-0.9,0c-0.2-0.2-0.2-0.6,0-0.8l5-4.5
		c0.2-0.2,0.6-0.2,0.9,0l5,4.5c0.1,0.1,0.2,0.3,0.2,0.4c0,0.1-0.1,0.3-0.2,0.4c-0.2,0.2-0.6,0.2-0.9,0l-4-3.6v8.8
		c0,0.3-0.3,0.6-0.6,0.6s-0.6-0.3-0.6-0.6"/>
</g>
</svg>
