<?xml version="1.0" encoding="utf-8"?>
<!-- Generator: Adobe Illustrator 18.1.1, SVG Export Plug-In . SVG Version: 6.00 Build 0)  -->
<svg version="1.1" id="图层_1" xmlns="http://www.w3.org/2000/svg" xmlns:xlink="http://www.w3.org/1999/xlink" x="0px" y="0px"
	 viewBox="-297 389 16 16" enable-background="new -297 389 16 16" xml:space="preserve">
<path id="video-layout_12" d="M-293.5,391h9c0.8,0,1.5,0.8,1.5,1.8v8.4c0,1-0.7,1.8-1.5,1.8h-9c-0.8,0-1.5-0.8-1.5-1.8v-8.4
	C-295,391.8-294.3,391-293.5,391z M-293.5,392.2c-0.3,0-0.5,0.3-0.5,0.6v5.4h10v-5.4c0-0.3-0.2-0.6-0.5-0.6H-293.5z M-287.7,399.4
	h-2.7v2.4h2.7V399.4z M-286.7,399.4v2.4h2.2c0.3,0,0.5-0.3,0.5-0.6v-1.8H-286.7z M-294,399.4h2.7v2.4h-2.2c-0.3,0-0.5-0.3-0.5-0.6
	V399.4z"/>
</svg>
