<svg width="16" height="16" xmlns="http://www.w3.org/2000/svg">
 <g id="Layer_1">
  <title>Layer 1</title>
  <desc>Created with Sketch.</desc>
  <g id="svg_6">
   <path fill-rule="evenodd" fill="#000" d="m13.25,8.255c0,0.058 -0.037,0.109 -0.092,0.127l-1.308,0.434c-0.138,0.045 -0.249,0.148 -0.305,0.282l-0.367,0.887c-0.056,0.134 -0.05,0.286 0.014,0.415l0.617,1.23c0.026,0.052 0.015,0.114 -0.028,0.157c-0.04,0.041 -0.104,0.049 -0.154,0.026l-1.233,-0.616c-0.13,-0.066 -0.282,-0.07 -0.415,-0.014l-0.886,0.367c-0.134,0.056 -0.237,0.167 -0.282,0.305l-0.433,1.303c-0.036,0.107 -0.22,0.111 -0.257,0.001l-0.436,-1.304c-0.046,-0.138 -0.149,-0.249 -0.283,-0.304l-0.886,-0.366c-0.061,-0.026 -0.126,-0.038 -0.191,-0.038c-0.077,0 -0.155,0.017 -0.225,0.053l-1.228,0.618c-0.051,0.025 -0.113,0.015 -0.092,0.05c-0.018,-0.027 -0.041,-0.056 -0.065,-0.079c-0.04,-0.041 -0.05,-0.102 -0.024,-0.154l0.616,-1.237c0.064,-0.13 0.069,-0.282 0.013,-0.415l-0.368,-0.885c-0.056,-0.134 -0.166,-0.237 -0.304,-0.282l-1.306,-0.434c-0.055,-0.018 -0.092,-0.069 -0.092,-0.13c0,-0.058 0.037,-0.109 0.092,-0.127l1.311,-0.44c0.137,-0.046 0.247,-0.15 0.303,-0.283l0.365,-0.885c0.056,-0.134 0.05,-0.285 -0.014,-0.414l-0.616,-1.232c-0.025,-0.052 -0.016,-0.114 0.028,-0.158c0.04,-0.041 0.103,-0.051 0.155,-0.024l1.229,0.615c0.13,0.064 0.281,0.07 0.415,0.014l0.886,-0.366c0.134,-0.056 0.237,-0.167 0.283,-0.304l0.435,-1.307c0.036,-0.106 0.219,-0.11 0.256,0l0.435,1.308c0.046,0.137 0.149,0.248 0.283,0.304l0.885,0.367c0.134,0.055 0.285,0.051 0.415,-0.015l1.237,-0.617c0.049,-0.025 0.112,-0.016 0.156,0.027c0.041,0.041 0.051,0.103 0.025,0.155l-0.619,1.232c-0.065,0.13 -0.071,0.281 -0.015,0.415l0.365,0.886c0.055,0.134 0.166,0.238 0.304,0.284l1.309,0.438c0.055,0.018 0.092,0.069 0.092,0.127l0,0.003zm0.226,-1.079c0.463,0.156 0.774,0.588 0.774,1.076l0,0.003c0,0.49 -0.313,0.923 -0.777,1.077l-1.092,0.36l-0.192,0.464l0.514,1.027c0.219,0.437 0.133,0.964 -0.213,1.309c-0.345,0.346 -0.87,0.431 -1.309,0.216l-1.031,-0.515l-0.463,0.193l-0.36,1.087c-0.154,0.465 -0.586,0.777 -1.076,0.777c-0.491,0 -0.923,-0.31 -1.078,-0.773l-0.364,-1.089l-0.464,-0.192l-1.023,0.514c-0.436,0.221 -0.965,0.137 -1.311,-0.211c-0.024,-0.023 -0.047,-0.052 -0.065,-0.079c-0.282,-0.268 -0.368,-0.793 -0.151,-1.23l0.515,-1.034l-0.193,-0.464l-1.09,-0.361c-0.465,-0.154 -0.777,-0.586 -0.777,-1.076c0,-0.492 0.311,-0.924 0.774,-1.079l1.095,-0.367l0.191,-0.463l-0.514,-1.029c-0.217,-0.437 -0.132,-0.963 0.213,-1.308c0.346,-0.348 0.874,-0.435 1.311,-0.215l1.026,0.513l0.464,-0.192l0.363,-1.089c0.154,-0.464 0.586,-0.776 1.076,-0.776c0.491,0 0.923,0.312 1.078,0.776l0.363,1.09l0.463,0.193l1.033,-0.515c0.439,-0.219 0.961,-0.135 1.309,0.213c0.348,0.348 0.433,0.875 0.212,1.312l-0.517,1.028l0.192,0.464l1.094,0.365zm-5.226,2.0741c-0.551,0 -1,-0.449 -1,-1c0,-0.551 0.449,-1 1,-1c0.551,0 1,0.449 1,1c0,0.551 -0.449,1 -1,1zm0,-3c-1.103,0 -2,0.897 -2,2c0,1.103 0.897,2 2,2c1.103,0 2,-0.897 2,-2c0,-1.103 -0.897,-2 -2,-2z" id="svg_4"/>
  </g>
 </g>

</svg>