<svg width="16" height="16" xmlns="http://www.w3.org/2000/svg">

 <g>
  <title>Layer 1</title>
  <g stroke="null" id="svg_6">
   <path stroke="null" d="m13.84605,4.84652c0.18791,0.18822 0.29029,0.43519 0.29029,0.69894l0,7.7926c0,0.99146 -0.81066,1.79829 -1.80681,1.79829l-8.4318,0c-0.99616,0 -1.80681,-0.80683 -1.80681,-1.79829l0,-10.78975c0,-0.99146 0.81066,-1.79829 1.80681,-1.79829l4.2159,0l1.20454,0c0.26379,0 0.51314,0.1019 0.70104,0.28773l3.82683,3.80878zm-0.91425,8.49153l0,-7.70628l-3.70036,-3.6829l-1.11782,0l-4.2159,0c-0.33125,0 -0.60227,0.26974 -0.60227,0.59943l0,10.78975c0,0.32969 0.27102,0.59943 0.60227,0.59943l8.4318,0c0.33125,0 0.60227,-0.26974 0.60227,-0.59943zm-7.22726,-4.79545c0,-0.32969 0.27102,-0.59943 0.60227,-0.59943l3.61363,0c0.33125,0 0.60227,0.26974 0.60227,0.59943c0,0.32969 -0.27102,0.59943 -0.60227,0.59943l-3.61363,0c-0.33125,0 -0.60227,-0.26974 -0.60227,-0.59943zm1.80681,1.79829c0.33125,0 0.60227,0.26974 0.60227,0.59943c0,0.32969 -0.27102,0.59943 -0.60227,0.59943l-1.20454,0c-0.33125,0 -0.60227,-0.26974 -0.60227,-0.59943c0,-0.32969 0.27102,-0.59943 0.60227,-0.59943l1.20454,0z" id="svg_4"/>
  </g>
 </g>
</svg>