<svg width="32" height="32" xmlns="http://www.w3.org/2000/svg">
 <defs>
  <linearGradient id="svg_1" gradientUnits="userSpaceOnUse" x1="203.5132" y1="1729.0183" x2="967.9868" y2="404.9817" gradientTransform="matrix(0.013949351882710292,0,0,-0.013340182370335407,6.79919847180804e-7,28.441250520236395)">
   <stop offset="0" stop-color="#18884F"/>
   <stop offset="0.5" stop-color="#117E43"/>
   <stop offset="1" stop-color="#0B6631"/>
  </linearGradient>
 </defs>
 <g>
  <title>Layer 1</title>
  <g stroke="null">

   <g stroke="null">
    <title stroke="null">Layer 1</title>
    <g stroke="null">
     <metadata stroke="null"/>
     <path stroke="null" fill="#185C37" d="m20.05567,13.49693l-12.62764,-2.13109l0,15.74664c0,0.71913 0.60959,1.30209 1.36155,1.30209l0,0l21.78938,0c0.75197,0 1.36155,-0.58297 1.36155,-1.30209l0,0l0,-5.80154l-11.88484,-7.814z"/>
     <path stroke="null" fill="#21A366" d="m20.05567,0.00001l-11.26609,0c-0.75197,0 -1.36155,0.58297 -1.36155,1.30209c0,0 0,0 0,0l0,5.80154l12.62764,7.10364l6.68523,2.13109l5.19962,-2.13109l0,-7.10364l-11.88484,-7.10364l-0.00001,0z"/>
     <path stroke="null" fill="#107C41" d="m7.42803,7.10366l12.62764,0l0,7.10364l-12.62764,0l0,-7.10364z"/>
     <path stroke="null" opacity="0.1" enable-background="new    " d="m16.4657,5.68293l-9.03769,0l0,17.7591l9.03769,0c0.75095,-0.00234 1.35911,-0.58394 1.36155,-1.30209l0,-15.15491c-0.00244,-0.71816 -0.6106,-1.29976 -1.36155,-1.30209z"/>
     <path stroke="null" opacity="0.2" enable-background="new    " d="m15.7229,6.39329l-8.29488,0l0,17.7591l8.29488,0c0.75095,-0.00234 1.35911,-0.58394 1.36155,-1.30209l0,-15.15491c-0.00244,-0.71816 -0.6106,-1.29976 -1.36155,-1.30209z"/>
     <path stroke="null" opacity="0.2" enable-background="new    " d="m15.7229,6.39329l-8.29488,0l0,16.33837l8.29488,0c0.75095,-0.00234 1.35911,-0.58394 1.36155,-1.30209l0,-13.73418c-0.00244,-0.71816 -0.6106,-1.29976 -1.36155,-1.30209z"/>
     <path stroke="null" opacity="0.2" enable-background="new    " d="m14.9801,6.39329l-7.55208,0l0,16.33837l7.55208,0c0.75095,-0.00234 1.35911,-0.58394 1.36155,-1.30209l0,-13.73418c-0.00244,-0.71816 -0.6106,-1.29976 -1.36155,-1.30209z"/>
     <path stroke="null" fill="url(#svg_1)" d="m1.36155,6.39329l13.61854,0c0.75197,0 1.36155,0.58297 1.36155,1.30209l0,13.02381c0,0.71913 -0.60959,1.30209 -1.36155,1.30209l-13.61854,0c-0.75197,0.00001 -1.36155,-0.58296 -1.36155,-1.30208l0,-13.02382c0,-0.71913 0.60959,-1.30209 1.36155,-1.30209z"/>
     <path stroke="null" fill="#FFFFFF" d="m4.21689,18.43965l2.86425,-4.24442l-2.62432,-4.22099l2.11104,0l1.43213,2.69938c0.13223,0.25643 0.22284,0.44682 0.27187,0.57255l0.01857,0c0.09409,-0.20458 0.19312,-0.40324 0.29712,-0.596l1.53091,-2.67451l1.93797,0l-2.69118,4.19613l2.75953,4.26785l-2.06202,0l-1.65423,-2.96292c-0.07792,-0.12607 -0.14404,-0.25847 -0.19758,-0.39567l-0.02451,0c-0.04846,0.1344 -0.11275,0.26309 -0.19165,0.38359l-1.70324,2.975l-2.07466,0l0.00001,0z"/>
     <path stroke="null" fill="#33C481" d="m30.57896,0.00001l-10.52329,0l0,7.10364l11.88484,0l0,-5.80154c0,-0.71913 -0.60959,-1.30209 -1.36155,-1.30209l0,0z"/>
     <path stroke="null" fill="#107C41" d="m20.05567,14.2073l11.88484,0l0,7.10364l-11.88484,0l0,-7.10364z"/>
    </g>
   </g>
  </g>
  <g transform="rotate(-90 17.4375 9.93751)" stroke="null">
   <g stroke="null">
    <title stroke="null">Layer 1</title>
    <g stroke="null" transform="matrix(0 -1.87778 1.74444 0 9.85102 32.0844)">
     <path stroke="null" id="svg_2" d="m11.86921,1.12394l0.5,-1.8l0,8.8l4,-3.6c0.2,-0.2 0.6,-0.2 0.9,0c0.2,0.2 0.2,0.6 0,0.8l-5,4.5c-0.2,0.2 -0.6,0.2 -0.9,0l-5,-4.5c-0.1,-0.1 -0.2,-0.3 -0.2,-0.4c0,-0.1 0.1,-0.3 0.2,-0.4c0.2,-0.2 0.6,-0.2 0.9,0l4,3.6l0,-8.8c0,-0.3 0.3,-0.6 0.6,-0.6s0.6,0.3 0.6,0.6"/>
    </g>
   </g>
  </g>
 </g>
</svg>