<svg width="32" height="32" xmlns="http://www.w3.org/2000/svg">
 <defs>
  <linearGradient gradientTransform="matrix(0.01258457638323307,0,0,-0.012225152924656868,1.818171875634306,28.90491557121277)" y2="404.9817" x2="967.9868" y1="1729.0183" x1="203.5132" gradientUnits="userSpaceOnUse" id="svg_2">
   <stop stop-color="#18884F" offset="0"/>
   <stop stop-color="#117E43" offset="0.5"/>
   <stop stop-color="#0B6631" offset="1"/>
  </linearGradient>
 </defs>
 <g>
  <title>Layer 1</title>
  <g stroke="null">
   <metadata stroke="null"/>
   <path stroke="null" d="m19.91164,15.20969l-11.39218,-1.95297l0,14.43048c0,0.65902 0.54995,1.19326 1.22834,1.19326l0,0l19.65755,0c0.6784,0 1.22834,-0.53424 1.22834,-1.19326l0,0l0,-5.31663l-10.72205,-7.16088z" fill="#185C37"/>
   <path stroke="null" d="m19.91164,2.84089l-10.16384,0c-0.6784,0 -1.22834,0.53424 -1.22834,1.19326c0,0 0,0 0,0l0,5.31663l11.39218,6.50989l6.03116,1.95297l4.6909,-1.95297l0,-6.50989l-10.72205,-6.50989z" fill="#21A366"/>
   <path stroke="null" d="m8.51946,9.35079l11.39218,0l0,6.50989l-11.39218,0l0,-6.50989z" fill="#107C41"/>
   <path stroke="null" d="m16.67291,8.04881l-8.15346,0l0,16.27473l8.15346,0c0.67748,-0.00214 1.22614,-0.53513 1.22834,-1.19326l0,-13.88821c-0.0022,-0.65813 -0.55086,-1.19112 -1.22834,-1.19326z" enable-background="new    " opacity="0.1"/>
   <path stroke="null" d="m16.00278,8.6998l-7.48333,0l0,16.27473l7.48333,0c0.67748,-0.00214 1.22614,-0.53513 1.22834,-1.19326l0,-13.88821c-0.0022,-0.65813 -0.55086,-1.19112 -1.22834,-1.19326z" enable-background="new    " opacity="0.2"/>
   <path stroke="null" d="m16.00278,8.6998l-7.48333,0l0,14.97275l7.48333,0c0.67748,-0.00214 1.22614,-0.53513 1.22834,-1.19326l0,-12.58623c-0.0022,-0.65813 -0.55086,-1.19112 -1.22834,-1.19326z" enable-background="new    " opacity="0.2"/>
   <path stroke="null" d="m15.33265,8.6998l-6.8132,0l0,14.97275l6.8132,0c0.67748,-0.00214 1.22614,-0.53513 1.22834,-1.19326l0,-12.58623c-0.0022,-0.65813 -0.55086,-1.19112 -1.22834,-1.19326z" enable-background="new    " opacity="0.2"/>
   <path stroke="null" d="m3.04651,8.6998l12.28613,0c0.6784,0 1.22834,0.53424 1.22834,1.19326l0,11.93523c0,0.65902 -0.54995,1.19326 -1.22834,1.19326l-12.28613,0c-0.6784,0.00001 -1.22834,-0.53423 -1.22834,-1.19325l0,-11.93524c0,-0.65902 0.54995,-1.19326 1.22834,-1.19326z" fill="url(#svg_2)"/>
   <path stroke="null" d="m5.62249,19.73928l2.58402,-3.88966l-2.36756,-3.86818l1.9045,0l1.29201,2.47376c0.11929,0.235 0.20104,0.40947 0.24527,0.52469l0.01675,0c0.08488,-0.18748 0.17423,-0.36954 0.26805,-0.54618l1.38113,-2.45096l1.74836,0l-2.42788,3.8454l2.48954,3.91113l-1.86028,0l-1.49238,-2.71527c-0.0703,-0.11553 -0.12995,-0.23687 -0.17825,-0.3626l-0.02211,0c-0.04372,0.12317 -0.10172,0.2411 -0.1729,0.35153l-1.5366,2.72634l-1.87168,0z" fill="#FFFFFF"/>
   <path stroke="null" d="m29.40535,2.84089l-9.49371,0l0,6.50989l10.72205,0l0,-5.31663c0,-0.65902 -0.54995,-1.19326 -1.22834,-1.19326l0,0z" fill="#33C481"/>
   <path stroke="null" d="m19.91164,15.86068l10.72205,0l0,6.50989l-10.72205,0l0,-6.50989z" fill="#107C41"/>
  </g>
 </g>
</svg>