<svg width="32" height="32" xmlns="http://www.w3.org/2000/svg">

 <g>
  <title>Layer 1</title>
  <g stroke="null">
   <g stroke="null">
    <path stroke="null" clip-rule="evenodd" fill-rule="evenodd" d="m9.53422,14.90747l14.15294,0l0,-5.14177l-4.50896,0c-0.47336,0 -1.13215,-0.306 -1.44409,-0.67999c-0.31194,-0.37399 -0.50172,-1.04875 -0.50172,-1.61367l0,-5.47392l0,0l-11.45673,0c-0.03927,0 -0.0698,0.02354 -0.08944,0.04708c-0.03272,0.02615 -0.04145,0.06015 -0.04145,0.10984l0,27.84035c0,0.03661 0.01963,0.08369 0.03927,0.10723c0.01963,0.03661 0.06108,0.04708 0.08944,0.04708c4.96923,0 12.67177,0 17.78061,0c0.03927,0 0.03708,-0.02354 0.0589,-0.04708c0.03054,-0.02354 0.07199,-0.07323 0.07199,-0.10723l0,-2.91873l-14.15076,0c-0.9031,0 -1.64914,-0.88922 -1.64914,-1.9772l0,-8.21742c0,-1.08537 0.74168,-1.97459 1.64914,-1.97459l0,0zm0.89656,2.97626l1.62078,0l0,4.74685l2.53697,0l0,1.54828l-4.15775,0l0,-6.29514l0,0zm4.45006,3.15149c0,-1.02783 0.23777,-1.82813 0.7155,-2.39827c0.47773,-0.57276 1.14305,-0.85783 1.99598,-0.85783c0.87474,0 1.54661,0.28246 2.01998,0.84214c0.47336,0.5623 0.70896,1.34952 0.70896,2.36427c0,0.73491 -0.10253,1.33644 -0.30976,1.8072c-0.20723,0.47076 -0.50609,0.83691 -0.89656,1.09845c-0.39047,0.26153 -0.87692,0.3923 -1.45936,0.3923c-0.59116,0 -1.08198,-0.11246 -1.47027,-0.33738c-0.38829,-0.22754 -0.70241,-0.58322 -0.94237,-1.07491c-0.24214,-0.48907 -0.36211,-1.10106 -0.36211,-1.83597l0,0zm1.6186,0.00262c0,0.63553 0.09816,1.0906 0.29667,1.36783c0.19851,0.27723 0.46682,0.41584 0.80712,0.41584c0.34902,0 0.61952,-0.136 0.8093,-0.40799c0.19196,-0.272 0.28795,-0.75845 0.28795,-1.46459c0,-0.59107 -0.10034,-1.02522 -0.29885,-1.29721c-0.20069,-0.27461 -0.47118,-0.41061 -0.81366,-0.41061c-0.32721,0 -0.59116,0.13861 -0.78967,0.41584c-0.19851,0.28246 -0.29885,0.74014 -0.29885,1.3809l0,0zm7.22262,0.86306l0,-1.31029l2.50643,0l0,2.6755c-0.47991,0.3923 -0.90528,0.66168 -1.27176,0.80291c-0.36866,0.14123 -0.80712,0.21184 -1.3132,0.21184c-0.62388,0 -1.13215,-0.12815 -1.5248,-0.38184c-0.39265,-0.25369 -0.69587,-0.63291 -0.91183,-1.13768c-0.21596,-0.50215 -0.32285,-1.08014 -0.32285,-1.73397c0,-0.68784 0.1178,-1.28413 0.35339,-1.79151c0.23559,-0.50738 0.58243,-0.89183 1.03835,-1.15598c0.35557,-0.204 0.83548,-0.306 1.43536,-0.306c0.58025,0 1.01217,0.06277 1.30012,0.1883c0.28795,0.12554 0.52572,0.32169 0.7155,0.58584c0.18978,0.26415 0.33157,0.60153 0.42755,1.00691l-1.56188,0.33738c-0.06544,-0.238 -0.17451,-0.42107 -0.32721,-0.54661c-0.15488,-0.12815 -0.34902,-0.19092 -0.58898,-0.19092c-0.35339,0 -0.63697,0.14907 -0.84857,0.44461c-0.2116,0.29553 -0.3163,0.76368 -0.3163,1.40444c0,0.67999 0.10689,1.16644 0.32067,1.45675c0.2116,0.2903 0.51045,0.43938 0.89219,0.43938c0.18106,0 0.35339,-0.03138 0.51699,-0.09415c0.16361,-0.06277 0.35121,-0.17 0.56498,-0.31907l0,-0.58845l-1.08416,0l0,0.00262zm1.60769,-6.99343l2.16613,0c0.90746,0 1.64914,0.89183 1.64914,1.9772l0,8.21742c0,1.08537 -0.74386,1.9772 -1.64914,1.9772l-2.16613,0l0,3.54379c0,0.42107 -0.14179,0.79507 -0.37084,1.07229c-0.23123,0.27723 -0.54317,0.44461 -0.89437,0.44461c-6.42205,0 -12.34456,0 -18.79933,0c-0.35121,0 -0.66315,-0.16738 -0.89437,-0.44461c-0.23123,-0.27723 -0.37084,-0.65122 -0.37084,-1.07229l0,-29.0931c0,-0.42107 0.14179,-0.79507 0.37084,-1.07229c0.23123,-0.27723 0.55189,-0.44461 0.89437,-0.44461l12.8092,0c0.02836,-0.01308 0.0589,-0.01308 0.08944,-0.01308c0.13961,0 0.2814,0.07323 0.38175,0.18046l0.01963,0c0.01963,0.01308 0.03054,0.02354 0.05017,0.04708l6.54203,7.94019c0.11125,0.13338 0.19196,0.31384 0.19196,0.51784c0,0.06015 -0.01091,0.10723 -0.01963,0.17l0,6.05191l0,0zm-6.60311,-7.59235l0,-4.977l4.67475,5.6753l-4.09231,0c-0.16142,0 -0.30103,-0.08369 -0.41229,-0.204c-0.10034,-0.12031 -0.17015,-0.30076 -0.17015,-0.4943l0,0z" class="st0"/>
   </g>
  </g>
 </g>
</svg>