<svg width="32" height="32" xmlns="http://www.w3.org/2000/svg">

 <g>
  <title>Layer 1</title>
  <g stroke="null">
   <metadata stroke="null">Svg Vector Icons : http://www.onlinewebfonts.com/icon</metadata>
   <g stroke="null">
    <g stroke="null">
     <path stroke="null" d="m30.25001,24.13686l0,-20.13686l-28.25001,0l0,20.13356l11.77852,0l0,2.01236l-2.33783,0l0,1.34158l9.36862,0l0,-1.34158l-2.34648,0l0,-2.01236l11.78717,0l0,0.0033zm-27.07965,-1.34158l0,-17.45041l25.90929,0l0,17.45041l-25.90929,0zm2.97778,-8.72685l0.34304,-1.22592l1.9948,0l0.35457,1.22592l0.5823,0l0.5823,0l-1.85931,-6.02388l-0.63707,0l-0.63707,0l-1.85931,6.02388l0.57077,0l0.565,0zm1.3462,-4.6823l0.6976,2.4188l-1.3952,0l0.6976,-2.4188zm3.31217,-1.30192l16.66174,0l0,1.34158l-16.66174,0l0,-1.34158zm0,3.59846l16.66174,0l0,1.34158l-16.66174,0l0,-1.34158zm-6.03916,3.59846l22.7009,0l0,1.34158l-22.7009,0l0,-1.34158zm0,3.59846l22.7009,0l0,1.34158l-22.7009,0l0,-1.34158z"/>
    </g>
    <g stroke="null"/>
    <g stroke="null"/>
    <g stroke="null"/>
    <g stroke="null"/>
    <g stroke="null"/>
    <g stroke="null"/>
    <g stroke="null"/>
    <g stroke="null"/>
    <g stroke="null"/>
    <g stroke="null"/>
    <g stroke="null"/>
    <g stroke="null"/>
    <g stroke="null"/>
    <g stroke="null"/>
    <g stroke="null"/>
   </g>
  </g>
 </g>
</svg>