<svg id="Layer_1" data-name="Layer 1" xmlns="http://www.w3.org/2000/svg" viewBox="0 0 111.87 122.88"><defs><style>.cls-1{fill-rule:evenodd;}</style></defs><title>manual-information-file</title><path class="cls-1" d="M56.75,113.57V75.07a9.34,9.34,0,0,1,9.31-9.31h36.5a9.34,9.34,0,0,1,9.31,9.31v38.5a9.34,9.34,0,0,1-9.31,9.31H66.06a9.34,9.34,0,0,1-9.31-9.31Zm2.74-102.1,19.6,18.35H59.49V11.47ZM20.72,69.38a2.12,2.12,0,0,0-2,2.21,2.08,2.08,0,0,0,2,2.21H45.3V69.38Zm0,15.83a2.12,2.12,0,0,0-2,2.21,2.08,2.08,0,0,0,2,2.21H45.3V85.21Zm0-47.5a2.12,2.12,0,0,0-2,2.21,2.09,2.09,0,0,0,2,2.21H43.45a2.12,2.12,0,0,0,2-2.21,2.1,2.1,0,0,0-2-2.21Zm0-15.83a2.12,2.12,0,0,0-2,2.21,2.08,2.08,0,0,0,2,2.21h12.5a2.12,2.12,0,0,0,2-2.21,2.09,2.09,0,0,0-2-2.21Zm0,31.67a2.12,2.12,0,0,0-2,2.21,2.1,2.1,0,0,0,2,2.21H59.16a2.13,2.13,0,0,0,2-2.21,2.09,2.09,0,0,0-2-2.21ZM90,32.45a3.26,3.26,0,0,0-2.37-3.14L58.74,1.2A3.21,3.21,0,0,0,56.23,0H5.87A5.86,5.86,0,0,0,0,5.86V106.25a5.84,5.84,0,0,0,1.72,4.15,5.91,5.91,0,0,0,4.15,1.71H45.39v-6.55H6.55v-99H52.94V33.08a3.29,3.29,0,0,0,3.29,3.29h27.2V57.82H90V32.45Zm-9.6,78.34V94.13H77.21c0-4.32,7.93-1.52,13.77-3v19.65Zm6.83-32.93a3.88,3.88,0,0,1,4.2,4.21,4.57,4.57,0,0,1-1.92,3.57A7,7,0,0,1,85,87.2a4.39,4.39,0,0,1-3.09-1.08,3.7,3.7,0,0,1-1.17-2.84,4.88,4.88,0,0,1,1.91-3.82,6.82,6.82,0,0,1,4.56-1.6Z"/></svg>