<svg width="32" height="32" xmlns="http://www.w3.org/2000/svg">
 <defs>
  <linearGradient gradientTransform="matrix(0.23333333432674408,0,0,0.21666660093598722,-3.000002145767212,-3.999998819828022)" gradientUnits="userSpaceOnUse" y2="127.243" x2="70.714" y1="53.757" x1="28.286" id="svg_1">
   <stop stop-color="#1784d9" offset="0"/>
   <stop stop-color="#107ad5" offset="0.5"/>
   <stop stop-color="#0a63c9" offset="1"/>
  </linearGradient>
 </defs>
 <g>
  <title>Layer 1</title>
  <g stroke="null">

   <path stroke="null" fill="#123b6d" d="m30.59627,16.15434a0.42303,0.39282 0 0 1 -0.01633,0.11267a0.24617,0.22858 0 0 1 -0.014,0.052c0.00233,0.00217 0,0.00433 -0.00233,0.0065a0.21,0.195 0 0 1 -0.01843,0.0455a0.49,0.455 0 0 1 -0.035,0.065a0.58333,0.54167 0 0 1 -0.2471,0.2275l-1.08173,0.56767l-0.09333,0.04983l-1.15173,0.60233l-0.26577,0.13867l-5.01667,2.63467l-0.09777,0.052l-1.9117,1.00317l-0.23777,0.1235l-0.23543,0.1235l-0.119,0.06283c-0.03967,0.0195 -0.08143,0.04117 -0.12343,0.06283c-0.00467,0.00217 -0.007,0.00433 -0.01167,0.0065a1.0941,1.01595 0 0 1 -0.27277,0.09317l-0.00233,0a1.36127,1.26403 0 0 1 -0.3521,0.04117a1.3937,1.29415 0 0 1 -0.63,-0.13433c-0.03267,-0.01733 -0.06533,-0.03467 -0.098,-0.04983c-0.01167,-0.0065 -0.02333,-0.013 -0.03733,-0.0195l-1.4966,-0.7865l-0.20277,-0.10617l-0.14467,-0.07583l-0.03033,-0.01517l-0.10943,-0.0585l-0.01633,-0.00867l-0.049,-0.026l-0.035,-0.0195l-0.03733,-0.0195l-0.04667,-0.02383l-0.05577,-0.02817l-0.028,-0.01517l-0.007,-0.00433l-0.07467,-0.039l-0.06533,-0.03467l-0.01867,-0.00867l-0.08377,-0.04333l-4.22613,-2.21867l-0.8904,-0.468l-0.266,-0.13867l-1.15173,-0.60233l-0.12227,-0.065l-1.0514,-0.5525a0.59407,0.55163 0 0 1 -0.2471,-0.2275a0.52103,0.48382 0 0 1 -0.035,-0.06717l-0.049,-0.2145a0.61717,0.57308 0 0 1 0.3101,-0.49833l0.007,-0.0065c0.00467,0 0.00933,-0.00433 0.014,-0.00433l1.0514,-0.55033l0.12343,-0.065l4.97373,-2.61083l0.32177,-0.169l1.23807,-0.64783l0.08377,-0.0455l0.01867,-0.00867l0.06533,-0.03467l0.07467,-0.039l0.007,-0.00433l0.028,-0.01517l0.05577,-0.02817l0.04667,-0.02383l0.03733,-0.0195l0.035,-0.01733l0.049,-0.026l0.01633,-0.00867l0.10943,-0.0585l0.03033,-0.01517l0.14467,-0.07583l0.20277,-0.10833l1.4966,-0.78433c0.04667,-0.02383 0.091,-0.04767 0.13533,-0.06933a1.4161,1.31495 0 0 1 1.2565,0c0.04667,0.02167 0.09077,0.0455 0.1351,0.06933l2.5039,1.313l1.55727,0.81683l4.9749,2.61083l0.09333,0.04983l1.08173,0.5655c0.007,0 0.01167,0.00433 0.01633,0.00433l0.00467,0.0065a0.61437,0.57048 0 0 1 0.3122,0.49833z"/>
   <polygon stroke="null" fill="#28a8ea" points="22.666664123535156,6.6166682872507465 16.13333511352539,6.6166682872507465 16.13333511352539,12.25000444451976 22.666664123535156,17.88333781229133 29.200000762939453,17.88333781229133 29.200000762939453,12.25000444451976 22.666664123535156,6.6166682872507465 "/>
   <path stroke="null" fill="#0364b8" d="m22.66666,17.88334l0,5.63333l-6.53333,0l-0.11667,-0.091l-0.01633,-0.013l0,-0.00217l-0.021,-0.01733l-0.042,-0.0325l-0.07933,-0.06283l-0.007,-0.00433l-0.10267,-0.08233l-0.00233,-0.00217l-0.02567,-0.0195l-0.01167,-0.00867l-0.01167,-0.01083l-0.13767,-0.10833l-0.00233,0l-0.028,-0.02383l-0.01867,-0.01517l-0.01167,-0.00867l-0.028,-0.02167l-0.07,-0.05417l-0.14,-0.10617l-5.66067,-4.30083l-0.23333,-0.17767l0,-6.1035l6.76667,0l0.14,0.12133l0.035,0.03033l0.10267,0.08883l0.07233,0.06067l0.06533,0.05633l0.10967,0.09533l0.03033,0.026l0.14467,0.12567l5.83333,5.02883z"/>
   <rect stroke="null" fill="#14447d" height="5.63333" width="6.53333" y="17.88334" x="9.6"/>
   <rect stroke="null" fill="#0078d4" height="5.63333" width="6.53333" y="17.88334" x="22.66666"/>
   <rect stroke="null" fill="#50d9ff" height="5.63333" width="6.53333" y="6.61667" x="22.66666"/>
   <rect stroke="null" fill="#0078d4" height="5.63333" width="6.76667" y="6.61667" x="9.36666"/>
   <rect stroke="null" fill="#0078d4" height="5.63333" width="6.53333" y="12.25" x="16.13333"/>
   <path stroke="null" fill="#0358a7" d="m10.622,3.36667l17.32267,0a1.25533,1.16567 0 0 1 1.25533,1.16567l0,2.08433a0,0 0 0 1 0,0l-19.83333,0a0,0 0 0 1 0,0l0,-2.08433a1.25533,1.16567 0 0 1 1.25533,-1.16567z"/>
   <path stroke="null" opacity="0.1" fill="#0a2767" d="m29.2,16.32962l-9.5802,4.82712l-0.0448,0.02405a0.45267,0.42033 0 0 1 -0.04667,0.02318c-0.01727,0.00758 -0.03523,0.0143 -0.05297,0.02015l-0.31267,-0.16272l-0.03897,-0.01928c-0.01867,-0.00867 -0.03757,-0.01777 -0.0553,-0.02817l-0.02333,-0.01343l-1.89747,-0.97933l-0.15493,-0.08125l-0.12717,-0.065l-0.28,-0.14625l-7.21887,-3.72645l0,6.98945l19.83333,0l0,-6.66207z"/>
   <path stroke="null" opacity="0.1" fill="#0a2767" d="m29.2,16.54629l-9.5802,4.82712l-0.0448,0.02405a0.45267,0.42033 0 0 1 -0.04667,0.02318c-0.01727,0.00758 -0.03523,0.0143 -0.05297,0.02015l-0.31267,-0.16272l-0.03897,-0.01928c-0.01867,-0.00867 -0.03757,-0.01777 -0.0553,-0.02817l-0.02333,-0.01343l-1.89747,-0.97933l-0.15493,-0.08125l-0.12717,-0.065l-0.28,-0.14625l-7.21887,-3.72645l0,6.98945l19.83333,0l0,-6.66207z"/>
   <path stroke="null" opacity="0.1" fill="#0a2767" d="m29.2,16.76296l-9.5802,4.82712l-0.0448,0.02405a0.45267,0.42033 0 0 1 -0.04667,0.02318c-0.01727,0.00758 -0.03523,0.0143 -0.05297,0.02015l-0.31267,-0.16272l-0.03897,-0.01928c-0.01867,-0.00867 -0.03757,-0.01777 -0.0553,-0.02817l-0.02333,-0.01343l-1.89747,-0.97933l-0.15493,-0.08125l-0.12717,-0.065l-0.28,-0.14625l-7.21887,-3.72645l0,6.98945l19.83333,0l0,-6.66207z"/>
   <path stroke="null" opacity="0.1" fill="#0a2767" d="m29.2,16.97962l-9.5802,4.82712l-0.0448,0.02405a0.45267,0.42033 0 0 1 -0.04667,0.02318c-0.01727,0.00758 -0.03523,0.0143 -0.05297,0.02015l-0.31267,-0.16272l-0.03897,-0.01928c-0.01867,-0.00867 -0.03757,-0.01777 -0.0553,-0.02817l-0.02333,-0.01343l-1.89747,-0.97933l-0.15493,-0.08125l-0.12717,-0.065l-0.28,-0.14625l-7.21887,-3.72645l0,6.98945l19.83333,0l0,-6.66207z"/>
   <path stroke="null" fill="#1490df" d="m30.2829,16.63577l0,0l-0.0126,0.00628l-0.00303,0.00173l-10.22,5.14908a1.40443,1.30412 0 0 1 -0.13697,0.06912l0,0a1.47723,1.37172 0 0 1 -1.25743,0l0,0a1.4322,1.3299 0 0 1 -0.13697,-0.06912l0.4809,3.21057l10.18687,2.82685a1.45483,1.35092 0 0 0 0.8316,-0.23833a1.32673,1.23197 0 0 0 0.58333,-1.01205l0,-10.42514a0.59313,0.55077 0 0 1 -0.3157,0.481z"/>
   <path stroke="null" opacity="0.05" d="m20.4451,21.60199l-0.3801,0.19132a1.4609,1.35655 0 0 1 -0.13697,0.06912l0,0a1.47677,1.37128 0 0 1 -1.2572,0l0,0a1.4609,1.35655 0 0 1 -0.13697,-0.06912l0.4809,3.21057l10.18687,2.82685a1.45623,1.35222 0 0 0 0.83183,-0.23833a1.34703,1.25082 0 0 0 0.54577,-0.72713l-10.13413,-5.26327z"/>
   <path stroke="null" opacity="0.05" d="m30.50153,27.07261l-10.2991,-5.34842l-0.13743,0.06912a1.4609,1.35655 0 0 1 -0.13697,0.06912l0,0a1.47677,1.37128 0 0 1 -1.2572,0l0,0a1.4609,1.35655 0 0 1 -0.13697,-0.06912l0.4809,3.21057l10.18687,2.82685a1.45623,1.35222 0 0 0 0.83183,-0.23833a1.36523,1.26772 0 0 0 0.46807,-0.51978z"/>
   <path stroke="null" opacity="0.05" d="m30.3872,27.26154l-10.4258,-5.4132l-0.03337,0.01517l0,0a1.47677,1.37128 0 0 1 -1.2572,0l0,0a1.4609,1.35655 0 0 1 -0.13697,-0.06912l0.4809,3.21057l10.18687,2.82685a1.45623,1.35222 0 0 0 0.83183,-0.23833a1.3867,1.28765 0 0 0 0.35373,-0.33193z"/>
   <path stroke="null" opacity="0.05" d="m30.23693,27.43162l-10.46873,-5.4366l-0.05203,-0.02578l-0.04107,-0.02167a1.47793,1.37237 0 0 1 -1.0045,-0.08537l0,0a1.4609,1.35655 0 0 1 -0.13697,-0.06912l0.4809,3.21057l10.18687,2.82685a1.45623,1.35222 0 0 0 0.83183,-0.23833a1.4035,1.30325 0 0 0 0.2037,-0.16055z"/>
   <path stroke="null" fill="#28a8ea" d="m30.047,27.58134c-0.03033,0.0195 -0.06067,0.039 -0.091,0.05633s-0.063,0.0325 -0.09567,0.04767c-0.03733,0.01733 -0.07467,0.0325 -0.112,0.04767c-0.00233,0 -0.00467,0.00217 -0.007,0.00217q-0.063,0.02167 -0.126,0.039a0.77,0.715 0 0 1 -0.14467,0.0325a0.16333,0.15167 0 0 1 -0.03267,0.0065c-0.02567,0.00433 -0.05133,0.0065 -0.07933,0.00867a1.0808,1.0036 0 0 1 -0.15167,0.00867l-19.80533,0a1.40233,1.30217 0 0 1 -1.41867,-1.287l0,-10.38917l0.322,0.16683l0.00467,0.00217c0.00233,0.00217 0.00233,0.00217 0.00467,0.00217l1.05233,0.54383l1.96467,1.014l4.802,2.47867l0.14,0.07367l0.035,0.01733l0.10267,0.05417l0.07233,0.03683l0.06533,0.0325l0.10967,0.0585l0.03033,0.01517l0.14467,0.07367l1.736,0.897c0.04433,0.026 0.091,0.04983 0.13767,0.0715l0.57867,0.30117l0.36633,0.19067l0.00233,0l1.55633,0.80817l0.41767,0.21667l0.41767,0.21667l0.175,0.091l0.24267,0.12567l7.58333,3.939z"/>
   <path stroke="null" opacity="0.05" d="m16.83333,9.65l0,12.91767a1.2453,1.15635 0 0 1 -0.08633,0.42467a1.23013,1.14227 0 0 1 -0.12133,0.21667a1.1291,1.04845 0 0 1 -0.20067,0.21667a1.20703,1.12082 0 0 1 -0.119,0.091a1.27447,1.18343 0 0 1 -0.24033,0.12567a1.25487,1.16523 0 0 1 -0.48767,0.091l-7.61133,0l0,-0.86667l0.01633,0l0,-6.71233a0.61693,0.57287 0 0 1 0.31033,-0.49833l0.007,-0.0065c0.00467,0 0.00933,-0.00433 0.014,-0.00433l1.05233,-0.55033l0,-6.74483l6.21133,0a1.06097,0.98518 0 0 1 0.55533,0.1495a1.48727,1.38103 0 0 1 0.7,1.1505z"/>
   <path stroke="null" opacity="0.075" d="m16.65833,9.67167l0,12.67934a1.26747,1.17693 0 0 1 -0.20067,0.64133a1.1074,1.0283 0 0 1 -0.196,0.21667a0.78843,0.73212 0 0 1 -0.12833,0.0975a0.8743,0.81185 0 0 1 -0.154,0.08667c-0.02333,0.013 -0.04667,0.02167 -0.07,0.0325a1.2348,1.1466 0 0 1 -0.48533,0.091l-7.45733,0l0,-0.65l0.01633,0l0,-6.71233a0.61693,0.57287 0 0 1 0.31033,-0.49833l0.007,-0.0065c0.00467,0 0.00933,-0.00433 0.014,-0.00433l1.05233,-0.55033l0,-6.69067l6.03633,0a1.15313,1.07077 0 0 1 0.73033,0.2535a1.43477,1.33228 0 0 1 0.525,1.014z"/>
   <path stroke="null" opacity="0.1" d="m16.48333,9.69117l0,12.44317a1.27167,1.18083 0 0 1 -0.35,0.82767a0.448,0.416 0 0 1 -0.035,0.03033a1.1459,1.06405 0 0 1 -0.343,0.21667c-0.00233,0 -0.00467,0.00217 -0.007,0.00217a1.2292,1.1414 0 0 1 -0.476,0.08883l-7.30567,0l0,-0.43333l0.01633,0l0,-6.71233a0.61693,0.57287 0 0 1 0.31033,-0.49833l0.007,-0.0065c0.00467,0 0.00933,-0.00433 0.014,-0.00433l1.05233,-0.55033l0,-6.6365l5.86133,0a1.21567,1.12883 0 0 1 0.90533,0.39433a1.36407,1.26663 0 0 1 0.35,0.8385z"/>
   <path stroke="null" opacity="0.125" d="m16.30833,9.71067l0,12.207a1.33817,1.24258 0 0 1 -0.175,0.62183a1.1641,1.08095 0 0 1 -0.53433,0.45283c-0.028,0.01083 -0.05833,0.02167 -0.08867,0.03033a1.1872,1.1024 0 0 1 -0.38967,0.06067l-7.154,0l0,-0.21667l0.01633,0l0,-6.71233a0.61693,0.57287 0 0 1 0.31033,-0.49833l0.007,-0.0065c0.00467,0 0.00933,-0.00433 0.014,-0.00433l1.05233,-0.55033l0,-6.58233l5.68633,0a1.2537,1.16415 0 0 1 1.08033,0.598a1.28333,1.19167 0 0 1 0.175,0.60017z"/>
   <path stroke="null" opacity="0.2" d="m16.13333,9.73234l0,11.96867a1.20353,1.11757 0 0 1 -0.87267,1.131a1.1039,1.02505 0 0 1 -0.294,0.03467l-6.98367,0l0,-6.71233a0.61693,0.57287 0 0 1 0.31033,-0.49833l0.007,-0.0065c0.00467,0 0.00933,-0.00433 0.014,-0.00433l1.05233,-0.55033l0,-6.52817l5.51133,0a1.2558,1.1661 0 0 1 1.25533,1.16567z"/>
   <rect stroke="null" fill="url(#svg_1)" rx="5.38" height="14.08334" width="15.16667" y="8.56667" x="0.96666"/>
   <path stroke="null" fill="#fff" d="m5.17623,13.68932a3.4153,3.17135 0 0 1 1.34027,-1.37432a4.05207,3.76263 0 0 1 2.12987,-0.49552a3.76927,3.50003 0 0 1 1.97027,0.46995a3.38077,3.13928 0 0 1 1.30433,1.31343a4.5689,4.24255 0 0 1 0.45687,1.9318a4.81903,4.47482 0 0 1 -0.47063,2.02128a3.46197,3.21468 0 0 1 -1.34283,1.35937a3.9172,3.6374 0 0 1 -2.0447,0.48273a3.8598,3.5841 0 0 1 -2.01413,-0.47515a3.43117,3.18608 0 0 1 -1.3209,-1.31603a4.45457,4.13638 0 0 1 -0.4613,-1.90905a4.94363,4.59052 0 0 1 0.4529,-2.0085zm1.42823,3.22725a2.21667,2.05833 0 0 0 0.7539,0.90458a1.96933,1.82867 0 0 0 1.17787,0.32955a2.0678,1.9201 0 0 0 1.25767,-0.33973a2.12497,1.97318 0 0 0 0.73197,-0.90718a3.77557,3.50588 0 0 0 0.23333,-1.2623a4.13537,3.83998 0 0 0 -0.22003,-1.27833a2.1805,2.02475 0 0 0 -0.70583,-0.93947a1.94833,1.80917 0 0 0 -1.2467,-0.35772a2.0342,1.8889 0 0 0 -1.2061,0.33237a2.2344,2.0748 0 0 0 -0.77,0.91217a3.899,3.6205 0 0 0 -0.0056,2.60628l-0.00047,-0.00022z"/>
   <rect stroke="null" x="-3" y="-4" fill="none" height="39.00001" width="42"/>
  </g>
 </g>
</svg>