<svg width="32" height="32" xmlns="http://www.w3.org/2000/svg">

 <g>
  <title>Layer 1</title>
  <g stroke="null">
   <title stroke="null">_</title>
   <path stroke="null" fill="#0078D6" d="m19.17304,19.51502c0.85582,0.28754 1.71163,0.76677 2.47236,1.34184c0.76073,0.57508 1.33127,1.246 1.90181,2.01276c0.47545,0.76677 0.95091,1.62938 1.23618,2.49199c0.28527,0.95846 0.38036,1.82107 0.38036,2.77953l-1.23618,0c0,-1.05431 -0.19018,-2.10861 -0.57054,-3.06707c-0.76073,-1.91692 -2.28218,-3.35461 -4.0889,-4.12138c-1.61654,-0.67092 -3.42326,-0.76677 -5.13489,-0.28754c-0.66563,0.19169 -1.33127,0.47923 -1.90181,0.76677c-1.14109,0.67092 -2.09199,1.62938 -2.75763,2.77953c-0.66563,1.246 -1.046,2.58784 -1.046,4.02553l-1.23618,0c0,-1.91692 0.57054,-3.73799 1.61654,-5.27153c0.57054,-0.76677 1.14109,-1.43769 1.90181,-2.01276c0.76073,-0.57508 1.61654,-1.05431 2.47236,-1.34184c-1.046,-0.57508 -1.90181,-1.34184 -2.47236,-2.39615c-0.28527,-0.47923 -0.47545,-1.05431 -0.66563,-1.62938c-0.38036,-1.43769 -0.28527,-2.97122 0.28527,-4.31307c0.66563,-1.53353 1.90181,-2.77953 3.42326,-3.45045c1.61654,-0.67092 3.42326,-0.67092 5.0398,0c1.52145,0.67092 2.75763,1.91692 3.42326,3.45045c0.57054,1.34184 0.66563,2.87538 0.28527,4.31307c-0.19018,0.57508 -0.38036,1.05431 -0.66563,1.62938c-0.28527,0.47923 -0.66563,0.95846 -1.046,1.34184c-0.66563,0.28754 -1.14109,0.67092 -1.61654,0.95846zm-8.36798,-5.75076c0,0.67092 0.09509,1.43769 0.38036,2.01276c0.57054,1.246 1.52145,2.20446 2.75763,2.77953c1.33127,0.57508 2.75763,0.57508 3.99381,0c1.23618,-0.57508 2.18708,-1.53353 2.75763,-2.77953c0.57054,-1.34184 0.57054,-2.77953 0,-4.02553c-0.57054,-1.246 -1.52145,-2.20446 -2.75763,-2.77953c-1.33127,-0.57508 -2.75763,-0.57508 -3.99381,0c-1.23618,0.57508 -2.18708,1.53353 -2.75763,2.77953c-0.28527,0.57508 -0.38036,1.34184 -0.38036,2.01276z" class="st0"/>
   <path stroke="null" fill="#0078D6" d="m25.54412,28.62039l-2.18708,0l0,-0.47923c0,-0.95846 -0.19018,-2.01276 -0.57054,-2.97122c-0.66563,-1.72523 -2.09199,-3.16292 -3.89872,-3.92968c-1.52145,-0.67092 -3.23308,-0.76677 -4.84962,-0.28754c-0.57054,0.19169 -1.23618,0.38338 -1.80672,0.76677c-1.046,0.67092 -1.9969,1.53353 -2.66254,2.68369c-0.66563,1.15015 -0.95091,2.49199 -0.95091,3.73799l0,0.47923l-2.18708,0l0,-0.47923c0,-2.01276 0.57054,-3.92968 1.71163,-5.55906c0.57054,-0.76677 1.23618,-1.53353 1.9969,-2.10861c0.57054,-0.38338 1.14109,-0.76677 1.80672,-1.05431c-0.28527,-0.19169 -0.57054,-0.38338 -0.76073,-0.67092c-0.47545,-0.47923 -0.85582,-0.95846 -1.14109,-1.43769c-0.28527,-0.47923 -0.57054,-1.05431 -0.76073,-1.62938c-0.38036,-1.53353 -0.28527,-3.16292 0.28527,-4.6006c1.52145,-3.5463 5.51526,-5.17568 9.1287,-3.73799c1.61654,0.67092 2.94781,2.01276 3.70854,3.73799c0.57054,1.43769 0.66563,3.06707 0.28527,4.6006c-0.19018,0.57508 -0.38036,1.15015 -0.76073,1.72523c-0.28527,0.57508 -0.66563,1.05431 -1.14109,1.43769c-0.19018,0.19169 -0.47545,0.47923 -0.76073,0.67092c0.66563,0.28754 1.23618,0.57508 1.80672,1.05431c0.76073,0.57508 1.42636,1.34184 1.9969,2.10861c0.57054,0.76677 0.95091,1.72523 1.23618,2.58784c0.28527,0.95846 0.47545,1.91692 0.47545,2.97122l0,0.38338zm-1.33127,-0.95846l0.38036,0c0,-0.76677 -0.19018,-1.53353 -0.38036,-2.20446c-0.28527,-0.86261 -0.66563,-1.62938 -1.14109,-2.39615c-0.47545,-0.76677 -1.14109,-1.34184 -1.80672,-1.91692c-0.66563,-0.57508 -1.52145,-0.95846 -2.37727,-1.246l-0.95091,-0.38338l0.85582,-0.47923c0.47545,-0.28754 0.95091,-0.57508 1.33127,-0.95846c0.38036,-0.38338 0.66563,-0.76677 0.95091,-1.246c0.28527,-0.47923 0.47545,-0.95846 0.66563,-1.43769c0.38036,-1.34184 0.28527,-2.68369 -0.28527,-4.02553c-1.33127,-3.06707 -4.84962,-4.50476 -7.89252,-3.25876c-1.42636,0.57508 -2.56745,1.82107 -3.23308,3.25876c-0.28527,0.76677 -0.47545,1.53353 -0.47545,2.39615c0,0.57508 0.09509,1.05431 0.19018,1.62938c0.09509,0.47923 0.28527,1.05431 0.57054,1.53353c0.57054,0.95846 1.33127,1.72523 2.28218,2.20446l0.85582,0.47923l-0.95091,0.38338c-0.85582,0.28754 -1.61654,0.76677 -2.37727,1.34184c-0.66563,0.57508 -1.33127,1.15015 -1.80672,1.91692c-0.95091,1.34184 -1.42636,2.97122 -1.52145,4.6006l0.38036,0c0.09509,-1.34184 0.47545,-2.68369 1.14109,-3.83384c0.66563,-1.246 1.71163,-2.20446 2.94781,-2.97122c0.66563,-0.38338 1.33127,-0.67092 1.9969,-0.86261c1.80672,-0.47923 3.70854,-0.38338 5.42017,0.38338c1.9969,0.76677 3.51835,2.39615 4.37417,4.40891c0.66563,0.76677 0.85582,1.72523 0.85582,2.68369zm-8.1778,-8.24275c-0.76073,0 -1.52145,-0.19169 -2.18708,-0.47923c-1.33127,-0.57508 -2.47236,-1.62938 -3.0429,-2.97122c-0.57054,-1.43769 -0.57054,-2.97122 0,-4.40891c0.57054,-1.34184 1.61654,-2.39615 2.94781,-3.06707c1.42636,-0.57508 2.94781,-0.57508 4.37417,0c1.33127,0.57508 2.47236,1.62938 3.0429,3.06707c0.57054,1.43769 0.57054,2.97122 0,4.40891c-0.57054,1.34184 -1.61654,2.39615 -2.94781,2.97122c-0.66563,0.38338 -1.42636,0.47923 -2.18708,0.47923zm0,-10.44721c-0.66563,0 -1.23618,0.09585 -1.80672,0.38338c-1.14109,0.47923 -1.9969,1.43769 -2.56745,2.58784c-0.47545,1.15015 -0.47545,2.49199 0,3.73799c0.47545,1.15015 1.42636,2.01276 2.56745,2.58784c1.14109,0.47923 2.47236,0.47923 3.70854,0c1.14109,-0.47923 1.9969,-1.43769 2.56745,-2.58784c0.47545,-1.15015 0.47545,-2.49199 0,-3.73799c-0.47545,-1.15015 -1.42636,-2.01276 -2.56745,-2.58784c-0.66563,-0.28754 -1.23618,-0.38338 -1.90181,-0.38338z" class="st0"/>
   <path stroke="null" fill="#0078D6" d="m16.03505,31.97499c-8.65325,0 -15.68996,-7.0926 -15.78505,-15.81458c0,-8.72198 7.03671,-15.81458 15.68996,-15.91043c8.65325,0 15.68996,7.0926 15.78505,15.81458c0,8.81783 -7.03671,15.91043 -15.68996,15.91043zm0,-29.90393c-7.70234,0 -13.97832,6.32583 -13.97832,14.08935s6.27598,14.08935 13.97832,14.08935s13.97832,-6.32583 13.97832,-14.08935c0,0 0,0 0,0c-0.09509,-7.85937 -6.27598,-14.08935 -13.97832,-14.08935l0,0z" class="st0"/>
  </g>
 </g>
</svg>