<svg width="32" height="32" xmlns="http://www.w3.org/2000/svg" xml:space="preserve" enable-background="new 0 0 17 16" version="1.1">

 <g>
  <title>Layer 1</title>
  <g stroke="null" id="svg_1">
   <path stroke="null" id="svg_2" d="m27.46875,5.92857c1.04362,0 1.89062,0.8098 1.89062,1.80357l0,18.03571c0,0.99557 -0.847,1.80357 -1.89062,1.80357l-22.6875,0c-1.04173,0 -1.89062,-0.808 -1.89062,-1.80357l0,-18.03571c0,-0.99377 0.84889,-1.80357 1.89062,-1.80357l22.6875,0m0,-1.80357l-22.6875,0c-2.08725,0 -3.78125,1.616 -3.78125,3.60714l0,18.03571c0,1.99114 1.694,3.60714 3.78125,3.60714l22.6875,0c2.08725,0 3.78125,-1.616 3.78125,-3.60714l0,-18.03571c0,-1.99114 -1.694,-3.60714 -3.78125,-3.60714l0,0z" fill="#3399ff"/>
  </g>
  <rect stroke="null" id="svg_3" height="5.5" width="27.5" fill="#3399ff" y="5.125" x="2"/>
  <rect y="2.125" id="svg_4" height="2" width="2" fill="#3399ff" x="5"/>
  <rect y="2.125" id="svg_5" height="2" width="2" fill="#3399ff" x="24.5"/>
 </g>
</svg>