<svg id="webexicon_80" width="80" height="80" viewBox="0 0 80 80" fill="none" xmlns="http://www.w3.org/2000/svg">
<g id="webexicon_80">
<path fill-rule="evenodd" clip-rule="evenodd" d="M69.8947 40.4211C69.8947 56.699 56.699 69.8947 40.4211 69.8947C24.1432 69.8947 10.9474 56.699 10.9474 40.4211C10.9474 24.1432 24.1432 10.9474 40.4211 10.9474C56.699 10.9474 69.8947 24.1432 69.8947 40.4211" fill="white"/>
<path fill-rule="evenodd" clip-rule="evenodd" d="M63.1669 16.6423C60.452 13.8936 57.3715 11.7303 54.0814 10.1404C60.0056 22.393 57.8936 37.5551 47.7294 47.7219C37.5677 57.8869 22.4124 60.0006 10.164 54.0797C11.6974 57.2511 13.7614 60.2322 16.3745 62.8781L16.6574 63.1627C29.5004 76.009 50.3231 76.009 63.1669 63.1627C76.0099 50.3164 76.0099 29.4886 63.1669 16.6423" fill="#6EBE4A"/>
<path fill-rule="evenodd" clip-rule="evenodd" d="M16.8236 70.4128C14.976 70.4128 13.1284 69.7071 11.7187 68.2974C4.16168 60.7387 0 50.689 0 40.0002C0 29.3105 4.16168 19.2608 11.7187 11.7021C27.3171 -3.90047 52.7006 -3.90131 68.2998 11.7029C71.12 14.5231 71.12 19.0949 68.2998 21.9151C65.4804 24.7353 60.9103 24.7353 58.0893 21.9151C48.1213 11.9429 31.8981 11.9437 21.9284 21.9151C17.0989 26.7463 14.4387 33.1682 14.4387 40.0002C14.4387 46.8322 17.0989 53.2541 21.9284 58.0844C24.7478 60.9046 24.7486 65.4772 21.9284 68.2974C20.5187 69.7071 18.6712 70.4128 16.8236 70.4128" fill="#00BCEB"/>
<path fill-rule="evenodd" clip-rule="evenodd" d="M40.0094 80C29.7635 80 19.5185 76.0985 11.7189 68.2981C8.89954 65.4779 8.89954 60.9044 11.7189 58.0851C14.5383 55.2657 19.1092 55.2657 21.9286 58.0851C31.8983 68.0581 48.1214 68.0581 58.0894 58.0851C68.06 48.1128 68.06 31.8872 58.0894 21.915C55.2709 19.0947 55.2709 14.523 58.0894 11.7027C60.9105 8.88253 65.4806 8.88253 68.2999 11.7027C83.8999 27.3061 83.8999 52.6939 68.2999 68.2981C60.5004 76.0985 50.2553 80 40.0094 80" fill="#005073"/>
</g>
</svg>
